<svg width="16" height="18" viewBox="0 0 16 18" fill="none" xmlns="http://www.w3.org/2000/svg">
<path d="M1.33325 3.16667H3.83325M9.66659 3.16667H14.6666M9.66659 3.16667C9.66659 2.24619 8.92042 1.5 7.99992 1.5C7.07942 1.5 6.33325 2.24619 6.33325 3.16667C6.33325 4.08714 7.07942 4.83333 7.99992 4.83333C8.92042 4.83333 9.66659 4.08714 9.66659 3.16667ZM6.33325 9H11.3333M11.3333 9C11.3333 9.9205 12.0794 10.6667 12.9999 10.6667C13.9204 10.6667 14.6666 9.9205 14.6666 9C14.6666 8.0795 13.9204 7.33333 12.9999 7.33333C12.0794 7.33333 11.3333 8.0795 11.3333 9ZM1.33325 9H3.83325M7.16659 14.8333H14.6666M2.99992 13.1667C3.92039 13.1667 4.66659 13.9128 4.66659 14.8333C4.66659 15.7538 3.92039 16.5 2.99992 16.5C2.07944 16.5 1.33325 15.7538 1.33325 14.8333C1.33325 13.9128 2.07944 13.1667 2.99992 13.1667Z" stroke="black" stroke-width="1.024" stroke-linecap="round"/>
</svg>
