<svg width="16" height="15" viewBox="0 0 16 15" fill="none" xmlns="http://www.w3.org/2000/svg">
<g clip-path="url(#clip0_12_10)">
<path d="M15.5355 12.5993L13.0361 10.0999C13.6912 9.07875 14.0725 7.86562 14.0725 6.5625C14.0725 2.93813 11.1344 0 7.51001 0C3.88563 0 0.94751 2.93813 0.94751 6.5625C0.94751 10.1869 3.88563 13.125 7.51001 13.125C8.81313 13.125 10.0263 12.7437 11.0474 12.0886L13.5468 14.588C14.0962 15.1373 14.9863 15.1373 15.5355 14.588C16.0846 14.0386 16.0849 13.1487 15.5355 12.5993ZM7.51001 12.6562C4.14462 12.6562 1.41626 9.92789 1.41626 6.5625C1.41626 3.19711 4.14462 0.46875 7.51001 0.46875C10.8754 0.46875 13.6038 3.19711 13.6038 6.5625C13.6038 9.92789 10.8754 12.6562 7.51001 12.6562ZM15.2041 14.2566C14.838 14.6227 14.2443 14.6227 13.8784 14.2566L11.4402 11.8184C11.943 11.442 12.3897 10.995 12.7661 10.4927L15.2041 12.9307C15.5704 13.2966 15.5704 13.8905 15.2041 14.2566Z" fill="black"/>
<path d="M7.51001 0.9375C4.40337 0.9375 1.88501 3.45586 1.88501 6.5625C1.88501 9.66914 4.40337 12.1875 7.51001 12.1875C10.6167 12.1875 13.135 9.66914 13.135 6.5625C13.135 3.45586 10.6167 0.9375 7.51001 0.9375ZM7.51001 11.7188C4.66235 11.7188 2.35376 9.41016 2.35376 6.5625C2.35376 3.71484 4.66235 1.40625 7.51001 1.40625C10.3577 1.40625 12.6663 3.71484 12.6663 6.5625C12.6663 9.41016 10.3577 11.7188 7.51001 11.7188Z" fill="black"/>
<path d="M7.51001 2.57812C7.3804 2.57812 7.27563 2.68289 7.27563 2.8125C7.27563 2.94211 7.3804 3.04688 7.51001 3.04688C9.45157 3.04688 11.0256 4.62094 11.0256 6.5625C11.0256 6.69211 11.1304 6.79688 11.26 6.79688C11.3896 6.79688 11.4944 6.69211 11.4944 6.5625C11.4944 4.36195 9.71056 2.57812 7.51001 2.57812Z" fill="black"/>
</g>
<defs>
<clipPath id="clip0_12_10">
<rect width="15" height="15" fill="white" transform="translate(0.94751)"/>
</clipPath>
</defs>
</svg>
